<?xml version="1.0" encoding="UTF-8" standalone="no"?>
<svg
   xmlns:dc="http://purl.org/dc/elements/1.1/"
   xmlns:cc="http://creativecommons.org/ns#"
   xmlns:rdf="http://www.w3.org/1999/02/22-rdf-syntax-ns#"
   xmlns:svg="http://www.w3.org/2000/svg"
   xmlns="http://www.w3.org/2000/svg"
   xmlns:sodipodi="http://sodipodi.sourceforge.net/DTD/sodipodi-0.dtd"
   xmlns:inkscape="http://www.inkscape.org/namespaces/inkscape"
   viewBox="0 0 352 352"
   version="1.1"
   id="svg4"
   sodipodi:docname="times-white.svg"
   width="352"
   height="352"
   inkscape:version="0.92.3 (2405546, 2018-03-11)">
  <metadata
     id="metadata10">
    <rdf:RDF>
      <cc:Work
         rdf:about="">
        <dc:format>image/svg+xml</dc:format>
        <dc:type
           rdf:resource="http://purl.org/dc/dcmitype/StillImage" />
        <dc:title></dc:title>
      </cc:Work>
    </rdf:RDF>
  </metadata>
  <defs
     id="defs8" />
  <sodipodi:namedview
     pagecolor="#ffffff"
     bordercolor="#666666"
     borderopacity="1"
     objecttolerance="10"
     gridtolerance="10"
     guidetolerance="10"
     inkscape:pageopacity="0"
     inkscape:pageshadow="2"
     inkscape:window-width="1366"
     inkscape:window-height="713"
     id="namedview6"
     showgrid="false"
     inkscape:zoom="0.92172518"
     inkscape:cx="112.70523"
     inkscape:cy="134.50117"
     inkscape:window-x="0"
     inkscape:window-y="27"
     inkscape:window-maximized="1"
     inkscape:current-layer="svg4"
     showguides="true"
     inkscape:guide-bbox="true">
    <sodipodi:guide
       position="177.92722,91.133455"
       orientation="1,0"
       id="guide833"
       inkscape:locked="false" />
    <sodipodi:guide
       position="399.25133,176.8423"
       orientation="0,1"
       id="guide835"
       inkscape:locked="false" />
  </sodipodi:namedview>
  <!-- Font Awesome Free 5.15.4 by @fontawesome - https://fontawesome.com License - https://fontawesome.com/license/free (Icons: CC BY 4.0, Fonts: SIL OFL 1.1, Code: MIT License) -->
  <ellipse
     style="opacity:0.95;fill:#cccccc;fill-opacity:1;stroke:#ffffff;stroke-width:1.232126;stroke-miterlimit:4;stroke-dasharray:none;stroke-dashoffset:0;stroke-opacity:1"
     id="path812"
     cx="177.38475"
     cy="176.24263"
     rx="176.29984"
     ry="172.50261" />
  <path
     d="m 209.8937,174.21558 47.94496,-46.71122 c 5.88351,-5.73212 5.88351,-15.02582 0,-20.76262 l -10.6555,-10.381308 c -5.88353,-5.732125 -15.42269,-5.732125 -21.311,0 L 177.92722,143.07166 129.98226,96.360432 c -5.88352,-5.732125 -15.42268,-5.732125 -21.31099,0 l -10.6555,10.381308 c -5.883517,5.73213 -5.883517,15.02583 0,20.76262 l 47.94494,46.71122 -47.94494,46.71123 c -5.883517,5.73212 -5.883517,15.02582 0,20.76261 l 10.6555,10.38131 c 5.88353,5.73213 15.42747,5.73213 21.31099,0 l 47.94496,-46.71122 47.94494,46.71122 c 5.88353,5.73213 15.42747,5.73213 21.311,0 l 10.6555,-10.38131 c 5.88351,-5.73212 5.88351,-15.02582 0,-20.76261 z"
     id="path2"
     inkscape:connector-curvature="0"
     style="fill:#000080;fill-opacity:1;stroke-width:0.47290963" />
</svg>
