<?xml version="1.0" encoding="UTF-8" standalone="no"?>
<svg
   xmlns:dc="http://purl.org/dc/elements/1.1/"
   xmlns:cc="http://creativecommons.org/ns#"
   xmlns:rdf="http://www.w3.org/1999/02/22-rdf-syntax-ns#"
   xmlns:svg="http://www.w3.org/2000/svg"
   xmlns="http://www.w3.org/2000/svg"
   xmlns:sodipodi="http://sodipodi.sourceforge.net/DTD/sodipodi-0.dtd"
   xmlns:inkscape="http://www.inkscape.org/namespaces/inkscape"
   viewBox="0 0 352 352"
   version="1.1"
   id="svg4"
   sodipodi:docname="times.svg"
   width="352"
   height="352"
   inkscape:version="0.92.3 (2405546, 2018-03-11)">
  <metadata
     id="metadata10">
    <rdf:RDF>
      <cc:Work
         rdf:about="">
        <dc:format>image/svg+xml</dc:format>
        <dc:type
           rdf:resource="http://purl.org/dc/dcmitype/StillImage" />
        <dc:title></dc:title>
      </cc:Work>
    </rdf:RDF>
  </metadata>
  <defs
     id="defs8" />
  <sodipodi:namedview
     pagecolor="#ffffff"
     bordercolor="#666666"
     borderopacity="1"
     objecttolerance="10"
     gridtolerance="10"
     guidetolerance="10"
     inkscape:pageopacity="0"
     inkscape:pageshadow="2"
     inkscape:window-width="1366"
     inkscape:window-height="740"
     id="namedview6"
     showgrid="false"
     inkscape:zoom="0.921875"
     inkscape:cx="360.56964"
     inkscape:cy="-39.058148"
     inkscape:window-x="1366"
     inkscape:window-y="0"
     inkscape:window-maximized="1"
     inkscape:current-layer="svg4" />
  <!-- Font Awesome Free 5.15.4 by @fontawesome - https://fontawesome.com License - https://fontawesome.com/license/free (Icons: CC BY 4.0, Fonts: SIL OFL 1.1, Code: MIT License) -->
  <path
     d="m 242.94466,176.92789 100.07,-100.070005 c 12.28,-12.28 12.28,-32.19 0,-44.48 l -22.24,-22.24 c -12.28,-12.2800008 -32.19,-12.2800008 -44.48,0 L 176.22466,110.20789 76.154658,10.137885 c -12.28,-12.2800008 -32.19,-12.2800008 -44.48,0 l -22.2399998,22.24 c -12.28,12.28 -12.28,32.19 0,44.48 L 109.50466,176.92789 9.4346582,276.99789 c -12.28,12.28 -12.28,32.19 0,44.48 l 22.2399998,22.24 c 12.28,12.28 32.2,12.28 44.48,0 l 100.070002,-100.07 100.07,100.07 c 12.28,12.28 32.2,12.28 44.48,0 l 22.24,-22.24 c 12.28,-12.28 12.28,-32.19 0,-44.48 z"
     id="path2"
     inkscape:connector-curvature="0"
     style="fill:#000080;fill-opacity:1" />
</svg>
